<?xml version="1.0" encoding="UTF-8"?>
<svg version="1.1" xmlns="http://www.w3.org/2000/svg" width="750" height="750">
<path d="M0 0 C247.5 0 495 0 750 0 C750 247.5 750 495 750 750 C502.5 750 255 750 0 750 C0 502.5 0 255 0 0 Z " fill="#1B1B1B" transform="translate(0,0)"/>
<path d="M0 0 C0.66 0 1.32 0 2 0 C1.39343386 4.99201117 0.36148323 9.6739893 -1.10546875 14.48828125 C-1.32252975 15.21267899 -1.53959076 15.93707672 -1.76322937 16.6834259 C-4.53392657 25.86839204 -7.43145371 35.0145436 -10.34643555 44.15454102 C-11.30524754 47.16473092 -12.25721489 50.17703029 -13.20898438 53.18945312 C-16.38515879 63.192211 -19.68243064 73.14082019 -23.23828125 83.015625 C-23.55759109 83.90956467 -23.87690094 84.80350433 -24.20588684 85.72453308 C-37.14973158 121.1501811 -66.16295526 139.00561593 -97.71875 155.97631836 C-105.58659915 160.21195077 -113.37798269 164.56900627 -121.14526367 168.98583984 C-128.54638003 173.19083411 -135.98704834 177.32067504 -143.4375 181.4375 C-153.22901453 186.8546617 -162.92598709 192.41344779 -172.57397461 198.08178711 C-178.34196174 201.46587155 -184.13940033 204.77916052 -190 208 C-197.93137689 212.362842 -205.75104612 216.9053152 -213.5612793 221.48095703 C-220.95847333 225.814056 -228.3797668 230.10319817 -235.8125 234.375 C-244.92067389 239.61274801 -253.97366356 244.93567036 -263 250.3125 C-273.22980547 256.40450576 -283.54033453 262.31212963 -294 268 C-284.39257871 264.13325017 -275.03974167 259.81491854 -265.6875 255.375 C-264.91998413 255.0116153 -264.15246826 254.64823059 -263.36169434 254.27383423 C-230.94836854 238.92463377 -198.55291507 223.39312302 -166.89257812 206.53613281 C-164.10050965 205.05337667 -161.30466962 203.57800931 -158.50773621 202.10446167 C-142.74131112 193.79609728 -127.06705448 185.36884834 -111.60888672 176.49560547 C-109.05713029 175.03275128 -106.50021718 173.57937913 -103.94140625 172.12890625 C-94.18522073 166.59107723 -84.4775459 160.97075075 -74.79302979 155.30871582 C-73.53636271 154.57411044 -72.27933627 153.84011941 -71.02191162 153.10681152 C-63.94482958 148.97726178 -56.95446556 144.75776227 -50.11376953 140.2434082 C-48 139 -48 139 -46 139 C-46.58841334 142.83624944 -47.71014312 145.64648902 -49.6328125 149.0078125 C-50.18388672 149.98049072 -50.73496094 150.95316895 -51.30273438 151.95532227 C-52.20475586 153.52431274 -52.20475586 153.52431274 -53.125 155.125 C-54.40952379 157.38633851 -55.6933547 159.64807072 -56.9765625 161.91015625 C-57.30831482 162.49290817 -57.64006714 163.0756601 -57.98187256 163.67607117 C-60.91057352 168.82383448 -63.77812817 174.00437577 -66.63891602 179.19018555 C-72.21487501 189.29391394 -77.87792945 199.34108915 -83.6875 209.3125 C-84.26371094 210.30258057 -84.83992187 211.29266113 -85.43359375 212.31274414 C-96.81655888 231.74339786 -109.17022081 242.83986522 -131 249 C-137.70151707 250.55093563 -144.51185823 251.49972555 -151.3125 252.5 C-153.20437572 252.79102937 -155.09597394 253.08386778 -156.98730469 253.37841797 C-160.81891797 253.97420308 -164.65147965 254.56318202 -168.48486328 255.14746094 C-175.84301052 256.27618115 -183.18320836 257.50803198 -190.52316284 258.74868774 C-199.4880287 260.26365658 -208.45373165 261.76875884 -217.4375 263.16796875 C-241.391397 266.90841638 -265.18739338 271.45669783 -289 276 C-268.19341481 275.52883046 -247.59929252 273.7492834 -226.89117432 271.74920654 C-221.65511539 271.24508264 -216.4189172 270.77568568 -211.17578125 270.3515625 C-182.20649206 267.93149921 -153.29184137 263.42661804 -124.67070007 258.38502502 C-121.0623466 257.86482195 -117.63854502 257.86005596 -114 258 C-121.2515143 265.49323144 -129.18243071 272.19814619 -137.28125 278.75 C-139.92147729 280.93501569 -142.4672972 283.19171391 -145 285.5 C-149.29911935 289.41818472 -153.75192107 293.09516237 -158.28515625 296.73828125 C-160.94777846 298.95649457 -163.43225886 301.29449366 -165.9375 303.6875 C-175.02367981 311.98863388 -184.82318874 315.50650968 -196.94677734 315.40625 C-203.6552437 314.94898911 -209.80843914 312.33288607 -216.0118103 309.90118408 C-219.16689687 308.66533129 -222.34099223 307.48228021 -225.51490784 306.29580688 C-227.10846501 305.69975968 -228.70111677 305.10128595 -230.29283142 304.50033569 C-248.82557929 297.51618478 -267.90382119 292.19465817 -287 287 C-289.0755298 286.43362661 -291.15105096 285.86722156 -293.2265625 285.30078125 C-294.81768602 284.86710563 -296.40882317 284.43347998 -298 284 C-297.16452637 284.38220703 -296.32905273 284.76441406 -295.46826172 285.15820312 C-292.2936435 286.61431337 -289.1218556 288.07629144 -285.95166016 289.54199219 C-284.59333302 290.16861759 -283.23399505 290.79305764 -281.87353516 291.41503906 C-258.34197704 302.17928992 -224.82361618 319.08119346 -215 345 C-212.06871766 354.79088184 -214.42673316 363.16926736 -219 372 C-224.12744931 381.31882477 -230.90813121 389.59098894 -237.42041016 397.96337891 C-238.82509521 399.77448906 -240.21876767 401.59307664 -241.60546875 403.41796875 C-246.2875548 409.56654831 -251.07272222 415.62029302 -255.9375 421.625 C-256.49373047 422.31279541 -257.04996094 423.00059082 -257.62304688 423.70922852 C-258.14833984 424.35432373 -258.67363281 424.99941895 -259.21484375 425.6640625 C-259.68011475 426.23592285 -260.14538574 426.8077832 -260.62475586 427.39697266 C-262.01246395 429.01452837 -263.4737995 430.51342282 -265 432 C-264.49578672 427.04190277 -263.85460076 422.17964882 -262.98046875 417.2734375 C-261.69399656 408.94951642 -261.64765258 400.7147383 -261.6875 392.3125 C-261.68932281 391.51630249 -261.69114563 390.72010498 -261.69302368 389.89978027 C-261.73756875 378.3552063 -262.08135428 367.22916705 -265 356 C-265.17160645 355.33774414 -265.34321289 354.67548828 -265.52001953 353.99316406 C-272.72219868 326.99947385 -287.40915168 303.72689588 -307 284 C-307.66 283.67 -308.32 283.34 -309 283 C-308.60321045 283.73710205 -308.2064209 284.4742041 -307.79760742 285.23364258 C-274.83475829 346.80773112 -274.83475829 346.80773112 -274.8125 379.75 C-274.80025391 380.6884375 -274.78800781 381.626875 -274.77539062 382.59375 C-274.74251493 398.46175136 -279.63094777 411.73654234 -289.40234375 424.125 C-291.31997893 426.83869282 -291.31997893 426.83869282 -290.4765625 429.5234375 C-278.01276566 450.42832426 -261.02446476 469.08594177 -241 483 C-240.14921875 483.59337158 -240.14921875 483.59337158 -239.28125 484.19873047 C-233.32221537 488.32987043 -227.25717318 492.26072923 -221.046875 496.00390625 C-220.21824951 496.50349854 -219.38962402 497.00309082 -218.53588867 497.51782227 C-216.90781911 498.49344267 -215.27525045 499.46160046 -213.63793945 500.42163086 C-212.53518677 501.07917358 -212.53518677 501.07917358 -211.41015625 501.75 C-210.75152588 502.13671875 -210.09289551 502.5234375 -209.41430664 502.921875 C-208.71422485 503.45554687 -208.71422485 503.45554687 -208 504 C-208 504.66 -208 505.32 -208 506 C-213.21033686 506.07485565 -218.4203521 506.12893126 -223.63110352 506.16479492 C-225.39906272 506.17976535 -227.16698555 506.20014903 -228.93481445 506.22631836 C-246.86885179 506.48490923 -260.18810077 503.99085985 -273.78125 491.37890625 C-284.06715385 480.35053399 -291.2838238 466.14136612 -297.4375 452.5 C-297.77982666 451.74630127 -298.12215332 450.99260254 -298.47485352 450.21606445 C-300.26160889 446.14433696 -301.49852577 442.46382694 -302 438 C-303.010625 438.70125 -304.02125 439.4025 -305.0625 440.125 C-305.63097656 440.51945312 -306.19945312 440.91390625 -306.78515625 441.3203125 C-308.27102653 443.01110619 -308.27102653 443.01110619 -307.8984375 445.63671875 C-306.78022899 449.82270801 -305.26498929 453.70805429 -303.5625 457.6875 C-303.21123047 458.51258057 -302.85996094 459.33766113 -302.49804688 460.18774414 C-296.58148856 473.81622128 -289.69466755 486.93358145 -281 499 C-280.30390625 499.98097656 -279.6078125 500.96195313 -278.890625 501.97265625 C-271.60823196 511.97949065 -263.33165732 520.95750387 -254.36328125 529.4765625 C-253 531 -253 531 -253 533 C-267.70989672 533.70419718 -280.19549864 530.67993888 -291.5078125 520.8125 C-307.36815023 504.46828756 -315.72456581 474.6122833 -316.03930664 452.20117188 C-316.02633545 451.47478516 -316.01336426 450.74839844 -316 450 C-331.67996873 463.62142535 -346.87294427 477.77143823 -362 492 C-362 488.61152856 -361.28448369 487.27055065 -359.7265625 484.30078125 C-358.99155518 482.87741455 -358.99155518 482.87741455 -358.24169922 481.42529297 C-357.44143311 479.88446045 -357.44143311 479.88446045 -356.625 478.3125 C-337.98930077 441.60849056 -325.77998692 402.54808844 -319 362 C-318.84402344 361.09459473 -318.68804687 360.18918945 -318.52734375 359.25634766 C-316.63222264 348.11397457 -315.58369325 336.96144615 -314.8125 325.6875 C-314.72846924 324.49157227 -314.64443848 323.29564453 -314.55786133 322.06347656 C-313.81982072 310.0473776 -313.92060074 298.03382688 -314 286 C-316.26160442 293.39872207 -318.52222244 300.79774479 -320.78166485 308.19712734 C-321.83143856 311.63489631 -322.88152114 315.07257022 -323.93237305 318.51000977 C-328.35772159 332.98653391 -332.76679285 347.46588212 -337 362 C-337.97235661 365.29372057 -338.95212628 368.58515219 -339.9375 371.875 C-340.18491943 372.70177246 -340.43233887 373.52854492 -340.68725586 374.38037109 C-342.42156708 380.14754423 -344.22774652 385.8891115 -346.0625 391.625 C-347.97006666 397.59279267 -349.74209749 403.57650528 -351.375 409.625 C-354.24389855 420.22223882 -357.67578895 430.63669083 -361.05859375 441.07861328 C-363.08625504 447.37088377 -365.04262245 453.6855753 -367 460 C-371.10978038 455.89021962 -372.32829559 449.01902654 -374.1875 443.5625 C-374.45722626 442.77534607 -374.72695251 441.98819214 -375.00485229 441.17718506 C-389.64535913 398.26895182 -402.24510396 354.58331319 -415.17237854 311.13476562 C-417.76594218 302.41849696 -420.38455995 293.70972371 -423 285 C-424.69925075 356.49527106 -409.01916526 427.30154502 -374 490 C-377 490 -377 490 -378.76171875 488.49609375 C-379.71498047 487.47708984 -379.71498047 487.47708984 -380.6875 486.4375 C-383.95417171 483.04587364 -387.31779238 479.90460696 -390.8828125 476.83203125 C-399.08162153 469.73748986 -407.01847038 462.3369731 -415 455 C-415.08451416 455.58676514 -415.16902832 456.17353027 -415.25610352 456.77807617 C-418.7819272 480.56295487 -424.29009551 509.13224428 -444.3046875 524.8046875 C-454.47643863 531.50803825 -465.97684033 533.7927358 -478 533 C-476.36546936 528.71711592 -473.10901953 525.97237082 -469.875 522.875 C-449.67642528 503.06422019 -433.76450588 476.51363685 -424 450 C-423.92357291 447.88850355 -423.92357291 447.88850355 -425 446 C-427.47661498 443.75149517 -427.47661498 443.75149517 -430 442 C-430.23456909 442.90226318 -430.23456909 442.90226318 -430.47387695 443.82275391 C-432.31824855 450.46762383 -434.92580072 456.31331084 -438.1875 462.375 C-438.67653809 463.2925708 -439.16557617 464.2101416 -439.66943359 465.15551758 C-449.28320704 482.97075611 -460.17510878 498.72096569 -480.2565918 505.20166016 C-488.1442457 506.88382466 -496.22548598 506.40485135 -504.25 506.25 C-506.07419902 506.22989327 -507.89841958 506.21164992 -509.72265625 506.1953125 C-514.14897853 506.15167256 -518.5742457 506.08287929 -523 506 C-523 505.34 -523 504.68 -523 504 C-521.6015625 502.93774414 -521.6015625 502.93774414 -519.625 501.78515625 C-518.89474609 501.35178955 -518.16449219 500.91842285 -517.41210938 500.47192383 C-516.61611328 500.00681396 -515.82011719 499.5417041 -515 499.0625 C-498.44431658 489.16558083 -483.10501679 478.20246363 -469 465 C-468.05125 464.11699219 -467.1025 463.23398437 -466.125 462.32421875 C-458.5397329 455.09542318 -452.24718457 447.15455426 -446.18310547 438.62109375 C-445.21514128 437.29478706 -444.16641264 436.0277667 -443.09765625 434.78125 C-441.80880713 433.06108913 -441.80880713 433.06108913 -442.08203125 430.9765625 C-443.23105075 428.50250349 -444.65668806 427.19306021 -446.6875 425.375 C-454.12623329 418.17579658 -457.84341872 409.72874538 -461 400 C-461.33 399.01 -461.66 398.02 -462 397 C-462.96224684 382.87246684 -462.40987908 368.75226784 -459 355 C-458.76651855 354.02135986 -458.76651855 354.02135986 -458.52832031 353.02294922 C-452.65554931 329.06884235 -441.0386855 306.38488181 -429 285 C-435.19409143 290.94816505 -440.70511113 297.23897788 -446 304 C-446.65871094 304.83015625 -447.31742187 305.6603125 -447.99609375 306.515625 C-456.34340498 317.46622243 -463.02871514 329.61954436 -467.875 342.5 C-468.13676025 343.18513672 -468.39852051 343.87027344 -468.66821289 344.57617188 C-473.66862026 358.64592984 -475.65125322 372.57985659 -475.46655273 387.45898438 C-475.43750728 389.99936331 -475.44602775 392.53764893 -475.45898438 395.078125 C-475.44436167 404.33842604 -474.77482934 413.17355485 -472.95713806 422.26611328 C-471.69824859 428.67996651 -471.69824859 428.67996651 -473 432 C-473.59425781 431.22398437 -474.18851562 430.44796875 -474.80078125 429.6484375 C-479.26994576 423.82107809 -483.76368688 418.01543352 -488.3125 412.25 C-494.62501614 404.22948385 -500.87671039 396.16619884 -507 388 C-507.55461914 387.26249512 -508.10923828 386.52499023 -508.68066406 385.76513672 C-524.06983974 365.15479419 -524.06983974 365.15479419 -523.50390625 351.04296875 C-521.79452372 340.72041846 -515.12887121 333.20457604 -508 326 C-507.44699219 325.39800781 -506.89398438 324.79601562 -506.32421875 324.17578125 C-490.10526829 306.91044689 -467.72216378 297.15047331 -446.6628418 287.26171875 C-444.42635124 286.20201552 -442.21125746 285.11088245 -440 284 C-440.56200607 284.18046371 -441.12401215 284.36092743 -441.70304871 284.54685974 C-448.86385045 286.84586844 -456.0254895 289.14225983 -463.1875 291.4375 C-464.32924683 291.80348297 -465.47099365 292.16946594 -466.64733887 292.54653931 C-481.07144056 297.16824981 -495.49891389 301.77312613 -509.99291992 306.17163086 C-516.67599822 308.21518146 -523.23487266 310.49703097 -529.78222656 312.94262695 C-539.11805631 316.01041744 -549.97574232 316.86498588 -559.0625 312.75 C-565.10566336 309.35072061 -569.89510179 304.81973931 -574.8359375 300.0234375 C-578.49289191 296.47777202 -582.42811001 293.32327842 -586.3984375 290.13671875 C-588.94986729 288.04117506 -591.38326773 285.86036845 -593.8125 283.625 C-597.73468329 280.04577391 -601.80471361 276.74716406 -606 273.5 C-611.89940903 268.93054335 -617.69130932 264.25976266 -623 259 C-623 258.67 -623 258.34 -623 258 C-615.87483951 258.74677835 -608.79652966 259.71376902 -601.70703125 260.7421875 C-599.29180876 261.08880224 -596.87652316 261.43497744 -594.46118164 261.78076172 C-593.21047882 261.95992126 -591.959776 262.13908081 -590.6711731 262.32366943 C-570.41270193 265.2182174 -550.20700699 267.97830311 -529.81689453 269.74414062 C-525.53620219 270.13295719 -521.26910635 270.62682375 -517 271.125 C-510.87840317 271.82981426 -504.76222436 272.32158643 -498.61328125 272.71875 C-494.45636888 273.04231507 -490.32790218 273.51382811 -486.1875 274 C-473.79609892 275.43511374 -461.47432825 276.07747139 -449 276 C-487.88524384 268.67250872 -526.87542764 261.87978837 -565.9375 255.5625 C-566.68585114 255.44124756 -567.43420227 255.31999512 -568.20523071 255.19506836 C-574.75164243 254.1361339 -581.29857739 253.08872765 -587.86328125 252.1484375 C-610.02696415 248.95850041 -629.36004195 242.91697434 -644 225 C-647.03600607 220.86207869 -649.55442592 216.50292884 -652 212 C-652.45955078 211.15920898 -652.91910156 210.31841797 -653.39257812 209.45214844 C-656.1364582 204.42170163 -658.85736118 199.37921056 -661.5703125 194.33203125 C-664.83115096 188.28531462 -668.17604227 182.28962082 -671.5625 176.3125 C-672.09222412 175.37631836 -672.62194824 174.44013672 -673.16772461 173.47558594 C-675.90171657 168.65682614 -678.66128156 163.85416284 -681.44921875 159.06640625 C-682.28054321 157.63204224 -682.28054321 157.63204224 -683.12866211 156.16870117 C-684.18181879 154.35402387 -685.24090192 152.54276843 -686.30688477 150.7355957 C-686.77795654 149.9230835 -687.24902832 149.11057129 -687.734375 148.2734375 C-688.14913086 147.56622559 -688.56388672 146.85901367 -688.99121094 146.13037109 C-690.10961124 143.76852187 -690.58714598 141.57218181 -691 139 C-687.20526164 140.40863654 -683.85069522 142.16193288 -680.37890625 144.23828125 C-678.74465698 145.21172485 -678.74465698 145.21172485 -677.07739258 146.20483398 C-676.50437408 146.54843964 -675.93135559 146.89204529 -675.3409729 147.24606323 C-673.53742566 148.32753548 -671.7313549 149.40467545 -669.92456055 150.48071289 C-667.46243737 151.94748494 -665.00127894 153.41585269 -662.54101562 154.88574219 C-644.00888373 165.95511072 -625.35732772 176.66885841 -606.35620117 186.91088867 C-599.16874845 190.7958303 -592.04005769 194.77468005 -584.9375 198.8125 C-574.09003203 204.97372342 -563.18281194 210.94272793 -552.01171875 216.5 C-546.27865477 219.35882145 -540.5517659 222.22958446 -534.82974243 225.11044312 C-513.37254091 235.91166756 -491.91936005 246.63449602 -470.05517578 256.58984375 C-463.63512791 259.55310062 -457.27773721 262.65152289 -450.92358398 265.75317383 C-450.03872314 266.18138428 -449.1538623 266.60959473 -448.2421875 267.05078125 C-447.4672998 267.42887939 -446.69241211 267.80697754 -445.89404297 268.1965332 C-444.03603808 269.13017414 -444.03603808 269.13017414 -442 269 C-442.54076172 268.7097998 -443.08152344 268.41959961 -443.63867188 268.12060547 C-455.42149158 261.78227811 -467.07902793 255.26945053 -478.61572266 248.4934082 C-486.33716437 243.9603458 -494.09593064 239.4956784 -501.875 235.0625 C-510.93106909 229.89976102 -519.97460289 224.71626179 -529 219.5 C-540.87329255 212.64003572 -552.77483476 205.83023677 -564.68507385 199.034729 C-568.83017736 196.66920304 -572.97232493 194.29855818 -577.11328125 191.92578125 C-588.29532806 185.52071884 -599.49345659 179.1487056 -610.75 172.875 C-619.97953992 167.72892069 -629.13670166 162.47082335 -638.24511719 157.11328125 C-643.00610414 154.31547446 -647.77827973 151.55026569 -652.609375 148.875 C-689.02871854 128.66778044 -705.3838802 104.85112678 -718.93310547 66.04492188 C-719.89094949 63.31123065 -720.86478536 60.58414434 -721.84765625 57.859375 C-725.20795435 48.49665465 -728.29939212 39.06233217 -731.25 29.5625 C-731.57943604 28.50877197 -731.90887207 27.45504395 -732.24829102 26.36938477 C-738 7.60243044 -738 7.60243044 -738 1 C-734.64063973 2.40551606 -733.02138398 3.93374533 -730.93359375 6.89453125 C-730.3713208 7.67876465 -729.80904785 8.46299805 -729.22973633 9.27099609 C-728.63829834 10.10969238 -728.04686035 10.94838867 -727.4375 11.8125 C-722.0281725 19.32009754 -716.41720674 26.48612575 -710.33544922 33.45410156 C-708.93431555 35.07603546 -707.56035664 36.71802048 -706.19140625 38.3671875 C-700.75089535 44.91234681 -695.12809226 51.08003162 -689 57 C-686.03753008 59.94189722 -683.10431261 62.91122097 -680.1796875 65.890625 C-672.43216995 73.75495736 -664.72221879 81.22058072 -656 88 C-654.33166191 89.39383518 -652.66506771 90.78975968 -651 92.1875 C-637.66302217 103.07366567 -623.58514168 112.873905 -609 122 C-607.8538623 122.72340576 -607.8538623 122.72340576 -606.68457031 123.46142578 C-595.02177214 130.81902063 -583.18778484 137.86026336 -571.27487183 144.80200195 C-564.39168353 148.81334955 -557.5307215 152.84054586 -550.8125 157.125 C-540.88947283 163.438548 -530.63241548 169.19191542 -520.42871094 175.03564453 C-512.7006372 179.46316385 -504.98327254 183.90905735 -497.27734375 188.375 C-493.20156364 190.73667872 -489.11053479 193.06743362 -485.00390625 195.375 C-451.16913498 214.56884494 -435.04227422 240.27073326 -424 277 C-420.04 276.34 -416.08 275.68 -412 275 C-412.165 276.340625 -412.33 277.68125 -412.5 279.0625 C-413.21269751 286.03890521 -413.08405626 292.99531192 -413 300 C-412.58041016 298.89205078 -412.58041016 298.89205078 -412.15234375 297.76171875 C-407.21371162 285.26427988 -400.85562032 276.14173233 -391 267 C-390.67 267.66 -390.34 268.32 -390 269 C-391.15089812 271.04604111 -392.39870943 273.03789155 -393.6875 275 C-397.10041857 280.34241279 -400.4742317 285.77678755 -402 292 C-401.67 292.99 -401.34 293.98 -401 295 C-400.57589844 294.43152344 -400.15179688 293.86304688 -399.71484375 293.27734375 C-389.0957744 279.29751399 -376.38945153 271.53815665 -361.26953125 262.98828125 C-350.65116492 256.98145061 -340.35655033 250.72820188 -330.4140625 243.65234375 C-328 242 -328 242 -327 242 C-326.88785156 242.804375 -326.88785156 242.804375 -326.7734375 243.625 C-324.87742882 254.92669881 -320.81759501 266.72049568 -314 276 C-313.34 276.33 -312.68 276.66 -312 277 C-311.81824219 276.2265625 -311.63648438 275.453125 -311.44921875 274.65625 C-311.19785156 273.6146875 -310.94648438 272.573125 -310.6875 271.5 C-310.44386719 270.4790625 -310.20023437 269.458125 -309.94921875 268.40625 C-301.87490317 239.43175129 -286.00679271 215.61729673 -259.75 200.6875 C-258.31250388 199.85456368 -256.87590915 199.02006992 -255.44018555 198.18408203 C-252.59568962 196.53016124 -249.74702937 194.88385859 -246.89404297 193.24462891 C-241.8380668 190.33647323 -236.82540488 187.35658781 -231.8125 184.375 C-225.91279822 180.88538916 -220.00273412 177.41366065 -214.0859375 173.953125 C-201.33919484 166.49704431 -188.61705139 159.007307 -175.96826172 151.38549805 C-170.18386547 147.90178769 -164.38038591 144.45469736 -158.55297852 141.04345703 C-113.18702768 114.45840361 -70.36909753 83.16427323 -35 44 C-34.30261719 43.22914062 -33.60523438 42.45828125 -32.88671875 41.6640625 C-31.22992862 39.79779316 -29.60758509 37.90876284 -28 36 C-27.37738281 35.2678125 -26.75476563 34.535625 -26.11328125 33.78125 C-19.5474929 25.91686765 -13.47053142 17.69268164 -7.35546875 9.4765625 C-6.237647 7.98387465 -5.11923759 6.49162653 -4 5 C-2.84951172 3.46472656 -2.84951172 3.46472656 -1.67578125 1.8984375 C-0.84626953 0.95871094 -0.84626953 0.95871094 0 0 Z " fill="#FBFCFB" transform="translate(743,18)"/>
<path d="M0 0 C0.33 0 0.66 0 1 0 C1.56907033 11.69755683 0.57977866 24.50865436 -7 34 C-8.95614285 35.81053109 -10.92092196 37.57299026 -12.9375 39.3125 C-20.79708227 46.09352709 -25.43446267 54.64222225 -27 65 C-27.11792457 67.42560434 -27.19580852 69.85330148 -27.24609375 72.28125 C-27.28059444 73.63151053 -27.31509973 74.98177095 -27.34960938 76.33203125 C-27.40140551 78.4200784 -27.43748521 80.50258546 -27.42553711 82.59130859 C-27.39422203 94.17244105 -27.39422203 94.17244105 -31.25024414 98.56103516 C-34.07256426 100.6402268 -36.91361915 102.34259932 -40 104 C-41.46520312 104.93665953 -42.9254349 105.88117454 -44.37890625 106.8359375 C-45.77000212 107.68792639 -47.16459966 108.53422213 -48.5625 109.375 C-49.70187012 110.06807251 -49.70187012 110.06807251 -50.86425781 110.77514648 C-56.24776642 114.02219276 -61.72573292 117.06335854 -67.25 120.0625 C-81.29715938 127.73701597 -93.99876105 136.49814157 -103 150 C-103.66 149.67 -104.32 149.34 -105 149 C-104.44045709 144.0984041 -102.94344581 140.43430077 -100.6875 136.0625 C-100.37353271 135.45003418 -100.05956543 134.83756836 -99.73608398 134.20654297 C-97.60168386 130.06980152 -95.38061417 125.99943181 -93 122 C-103.95856974 131.81705206 -110.30758004 143.21601638 -115 157 C-115.33 157 -115.66 157 -116 157 C-116.38297872 137.46808511 -116.38297872 137.46808511 -114 129 C-114.66 128.67 -115.32 128.34 -116 128 C-115.01 127.505 -115.01 127.505 -114 127 C-113.22061884 124.48362595 -112.53276885 121.98566103 -111.875 119.4375 C-109.34347673 110.31611724 -105.65875634 102.2203418 -101 94 C-100.65453125 93.39027344 -100.3090625 92.78054688 -99.953125 92.15234375 C-94.45530253 82.65424 -87.66983741 74.81259242 -80 67 C-80.53625 67.350625 -81.0725 67.70125 -81.625 68.0625 C-84.79142681 69.31240532 -86.67160418 68.6521588 -90 68 C-102.99711211 67.3380511 -112.28283987 67.98889176 -123.15234375 75.6953125 C-125 77 -125 77 -127 78 C-129.29260156 69.68698948 -128.06407175 62.57623252 -124 55 C-120.87382926 50.21879769 -117.33133446 48.2444869 -112.3125 45.875 C-111.60222656 45.52953125 -110.89195312 45.1840625 -110.16015625 44.828125 C-105.2114453 42.46213546 -100.28135497 40.50895856 -95 39 C-94.9175 37.948125 -94.835 36.89625 -94.75 35.8125 C-93.91655002 31.57579593 -93.10944077 29.94578599 -90 27 C-83.28731312 23.15329716 -76.27382749 23.34329611 -68.6875 23 C-45.43243285 21.72492987 -17.8822978 19.74560949 -1.20703125 1.28515625 C-0.80871094 0.86105469 -0.41039062 0.43695313 0 0 Z " fill="#E4221A" transform="translate(445,164)"/>
<path d="M0 0 C9.88911011 7.62285571 18.01818426 18.43637913 20 31 C20.87286446 41.93574478 19.52151522 50.78574334 15.73535156 61.00439453 C15.00689232 62.98129554 14.32424022 64.96940587 13.6484375 66.96484375 C8.18797562 82.71841192 0.20763757 96.84976984 -10 110 C-10.66773438 110.86496094 -11.33546875 111.72992187 -12.0234375 112.62109375 C-19.38876215 121.53463971 -28.55664105 127.17330923 -40 129 C-47.05067614 129.46806777 -54.1270614 129.28398558 -61.1875 129.1875 C-63.11261974 129.17242581 -65.03775089 129.15874225 -66.96289062 129.14648438 C-71.64221284 129.11369566 -76.32097826 129.06206443 -81 129 C-78.19107103 126.69516023 -75.45663231 124.54987503 -72.28515625 122.7734375 C-71.60590088 122.38655762 -70.92664551 121.99967773 -70.22680664 121.60107422 C-69.51258545 121.19646973 -68.79836426 120.79186523 -68.0625 120.375 C-51.5358411 110.82578848 -36.8682825 99.07795975 -23 86 C-22.20464844 85.25878906 -21.40929687 84.51757812 -20.58984375 83.75390625 C-6.76588517 70.46632701 8.58068539 51.07591574 9.375 31.1875 C9.29193819 20.86014878 4.75601038 10.98357516 0 2 C0 1.34 0 0.68 0 0 Z " fill="#F9F9F9" transform="translate(336,487)"/>
<path d="M0 0 C1.24127508 3.72382523 0.25338179 4.90403742 -1.40356445 8.29174805 C-6.83707298 19.56804237 -8.60422369 31.69208851 -4.98828125 43.88671875 C-1.49200716 52.83277251 4.08758806 60.51123123 10 68 C10.42941895 68.5451123 10.85883789 69.09022461 11.30126953 69.65185547 C30.20665562 93.35657497 53.92212319 110.14985864 79.7890625 125.57421875 C80.51867187 126.04472656 81.24828125 126.51523437 82 127 C82 127.33 82 127.66 82 128 C76.39908706 128.124926 70.79901007 128.21495588 65.19702148 128.2746582 C63.29713793 128.29958262 61.39734804 128.33353524 59.49780273 128.37719727 C42.8586676 128.74968251 29.79270084 126.78375271 17 115 C13.33114171 110.87799403 10.1037864 106.55760949 7 102 C6.31164062 100.99066406 5.62328125 99.98132813 4.9140625 98.94140625 C-7.58216661 79.55496386 -22.13080018 51.27847359 -17.3125 27.625 C-14.08388628 16.21723152 -8.73659432 7.93832682 0 0 Z " fill="#FAFAFA" transform="translate(411,488)"/>
<path d="M0 0 C0.99 0 1.98 0 3 0 C6.0699362 13.55636767 9.08330258 27.12038602 11.8125 40.75 C12.0189917 41.77730225 12.2254834 42.80460449 12.43823242 43.86303711 C16.98917917 66.83184309 16.4055208 86.8917188 3 107 C-3.62412179 104.20720289 -6.43089553 96.80908486 -9.09204102 90.47045898 C-16.90346438 69.21641409 -10.25116374 46.15374099 -5.45288086 25.01293945 C-4.51068692 20.82512865 -3.61989975 16.6261392 -2.71948242 12.42919922 C-1.82757394 8.28286882 -0.91512604 4.14126162 0 0 Z " fill="#F9FAF9" transform="translate(373,567)"/>
<path d="M0 0 C0.33 0 0.66 0 1 0 C1.50343596 17.9997719 0.70628574 35.77012556 -5 53 C-5.23734863 53.7321875 -5.47469727 54.464375 -5.71923828 55.21875 C-11.76255334 73.73566988 -17.90630926 89.52120976 -36 99 C-44.6639241 102.97977002 -52.55075375 103.5032143 -62 103 C-60.69081691 100.07906006 -59.32992449 98.12471444 -56.98046875 95.9609375 C-56.3767041 95.38996338 -55.77293945 94.81898926 -55.15087891 94.23071289 C-54.50296387 93.61832764 -53.85504883 93.00594238 -53.1875 92.375 C-29.92276887 69.69623282 -17.25760088 39.43567312 -4.84643555 9.97753906 C-4.11614136 8.24842285 -4.11614136 8.24842285 -3.37109375 6.484375 C-2.93724365 5.45022461 -2.50339355 4.41607422 -2.05639648 3.35058594 C-1 1 -1 1 0 0 Z " fill="#F9FAF9" transform="translate(364,540)"/>
<path d="M0 0 C2 1 2 1 2.83447266 2.93920898 C3.1082373 3.78298096 3.38200195 4.62675293 3.6640625 5.49609375 C3.97714355 6.43807617 4.29022461 7.38005859 4.61279297 8.35058594 C5.11383545 9.8786084 5.11383545 9.8786084 5.625 11.4375 C17.34551092 46.03785919 35.35095151 77.42448245 61.83203125 102.83984375 C62.54746094 103.55269531 63.26289063 104.26554688 64 105 C64 105.33 64 105.66 64 106 C48.40114333 106.76715689 36.24058027 103.7106131 24.0390625 93.33203125 C1.74663833 70.48481824 -0.27124898 29.69550322 0 0 Z " fill="#F7F8F7" transform="translate(384,537)"/>
<path d="M0 0 C0.33 0 0.66 0 1 0 C1.58248092 11.97321898 0.32776433 24.0872226 -7 34 C-9.8125 36.5625 -9.8125 36.5625 -12 38 C-11.06470165 36.01302977 -10.15588674 34.20321869 -8.81640625 32.45703125 C-3.63283482 25.65864006 -3.14993614 17.22718537 -2 9 C-5.29333124 10.20162086 -7.25076265 11.20896887 -10 13.5 C-12.78054733 15.81712277 -14.61891499 16.90114737 -18 18 C-18.84949219 18.30421875 -19.69898438 18.6084375 -20.57421875 18.921875 C-24.77650033 20.24437183 -29.00238401 21.16640474 -33.3125 22.0625 C-34.11623047 22.23587891 -34.91996094 22.40925781 -35.74804688 22.58789062 C-46.45853561 24.83683476 -57.01597025 25.25355529 -67.9375 25.51757812 C-76.56241317 25.79428539 -82.99249155 26.35939097 -89.56640625 32.34765625 C-91.57444226 34.66209557 -92.21910623 37.07164835 -93 40 C-95.37745978 43.14936231 -97.71623783 43.58064074 -101.5 44.3125 C-109.57261665 46.21078804 -117.47087667 48.93293527 -122.125 56.1875 C-124.21528049 60.05528178 -125.12628421 63.28638959 -125.0625 67.6875 C-125.05347656 68.49574219 -125.04445313 69.30398437 -125.03515625 70.13671875 C-125.02355469 70.75160156 -125.01195312 71.36648437 -125 72 C-124.01 72.33 -123.02 72.66 -122 73 C-122 72.01 -122 71.02 -122 70 C-116.71340874 66.0178923 -110.34912645 65.26519652 -104 64 C-103.23816406 63.82984375 -102.47632813 63.6596875 -101.69140625 63.484375 C-97.70335457 62.74614411 -95.15634883 63.201331 -91.5 64.6875 C-88.80480044 65.73020242 -87.58070279 66.18089149 -84.79296875 65.3125 C-82.69507359 64.22943877 -82.69507359 64.22943877 -80.82421875 62.98046875 C-79 62 -79 62 -75 62 C-75.65266469 64.00461299 -76.32204472 66.00379834 -77 68 C-77.433125 69.36125 -77.433125 69.36125 -77.875 70.75 C-79 73 -79 73 -80.8125 73.875 C-83.83011555 75.42691657 -85.04803683 77.72464346 -86.8515625 80.5390625 C-87.23054688 81.02117187 -87.60953125 81.50328125 -88 82 C-88.66 82 -89.32 82 -90 82 C-90.226875 82.598125 -90.45375 83.19625 -90.6875 83.8125 C-92.33811133 86.56351888 -94.1972081 87.52484637 -97 89 C-95.49499231 84.2547993 -92.85377759 81.16211353 -89.625 77.5 C-88.65826463 76.38592796 -87.69210965 75.27135201 -86.7265625 74.15625 C-86.26540039 73.62644531 -85.80423828 73.09664063 -85.32910156 72.55078125 C-83.49594299 70.41187176 -81.74240041 68.21309625 -80 66 C-80.53625 66.515625 -81.0725 67.03125 -81.625 67.5625 C-84.84752648 69.51297655 -86.3202902 68.66089805 -90 68 C-102.99711211 67.3380511 -112.28283987 67.98889176 -123.15234375 75.6953125 C-125 77 -125 77 -127 78 C-129.29260156 69.68698948 -128.06407175 62.57623252 -124 55 C-120.87382926 50.21879769 -117.33133446 48.2444869 -112.3125 45.875 C-111.60222656 45.52953125 -110.89195312 45.1840625 -110.16015625 44.828125 C-105.2114453 42.46213546 -100.28135497 40.50895856 -95 39 C-94.9175 37.948125 -94.835 36.89625 -94.75 35.8125 C-93.91655002 31.57579593 -93.10944077 29.94578599 -90 27 C-83.28731312 23.15329716 -76.27382749 23.34329611 -68.6875 23 C-45.43243285 21.72492987 -17.8822978 19.74560949 -1.20703125 1.28515625 C-0.80871094 0.86105469 -0.41039062 0.43695313 0 0 Z " fill="#B62F2E" transform="translate(445,164)"/>
<path d="M0 0 C1.134375 0.020625 2.26875 0.04125 3.4375 0.0625 C-0.51417142 3.45727564 -4.62376086 5.82063316 -9.1875 8.25 C-19.17663971 13.7367355 -27.43632856 20.27790363 -34.80859375 29.01953125 C-36.63167325 31.14307374 -38.56229242 33.10625303 -40.5625 35.0625 C-41.76967322 32.16957008 -41.53371162 30.97255032 -40.55859375 27.92578125 C-37.45811132 20.86227615 -34.19706491 14.27478914 -29.5625 8.0625 C-33.89659466 11.24933431 -37.1814962 14.92628916 -40.5625 19.0625 C-41.76878008 16.73035852 -42.7279738 14.56607861 -43.5625 12.0625 C-41.1875 11 -41.1875 11 -38.5625 10.0625 C-37.9025 10.3925 -37.2425 10.7225 -36.5625 11.0625 C-36.5625 10.0725 -36.5625 9.0825 -36.5625 8.0625 C-35.9025 8.0625 -35.2425 8.0625 -34.5625 8.0625 C-34.2325 7.4025 -33.9025 6.7425 -33.5625 6.0625 C-31.58764795 4.6921945 -29.58863283 3.35577628 -27.5625 2.0625 C-25.9375 5.375 -25.9375 5.375 -24.5625 9.0625 C-25.5525 10.5475 -25.5525 10.5475 -26.5625 12.0625 C-25.9025 12.3925 -25.2425 12.7225 -24.5625 13.0625 C-24.2325 12.0725 -23.9025 11.0825 -23.5625 10.0625 C-21.5825 10.0625 -19.6025 10.0625 -17.5625 10.0625 C-17.5625 9.4025 -17.5625 8.7425 -17.5625 8.0625 C-16.5725 8.0625 -15.5825 8.0625 -14.5625 8.0625 C-14.2325 7.0725 -13.9025 6.0825 -13.5625 5.0625 C-12.9025 5.0625 -12.2425 5.0625 -11.5625 5.0625 C-11.5625 4.4025 -11.5625 3.7425 -11.5625 3.0625 C-10.428125 2.753125 -9.29375 2.44375 -8.125 2.125 C-1.0625 0.01864035 -1.0625 0.01864035 0 0 Z " fill="#D02921" transform="translate(381.5625,278.9375)"/>
<path d="M0 0 C0.65484375 0.36843018 1.3096875 0.73686035 1.984375 1.11645508 C4.08554267 2.30706702 6.16889174 3.5247063 8.25 4.75 C8.90548828 5.13269043 9.56097656 5.51538086 10.23632812 5.90966797 C12.94065806 7.48943171 15.64099907 9.07551093 18.33325195 10.67578125 C25.5085016 14.93686753 32.77728682 19.02807401 40.05664062 23.1081543 C46.18596788 26.55186843 52.24154384 30.09941634 58.25 33.75 C54.40279441 35.03240186 53.59844924 34.23691728 50.03515625 32.4609375 C48.96998779 31.93773926 47.90481934 31.41454102 46.80737305 30.87548828 C45.65406494 30.29782715 44.50075684 29.72016602 43.3125 29.125 C40.86419933 27.91734124 38.41243712 26.71677381 35.9609375 25.515625 C35.32921127 25.20493073 34.69748505 24.89423645 34.0466156 24.5741272 C27.22851056 21.2287497 20.33624382 18.04981245 13.4375 14.875 C4.29236669 10.65460423 -4.80186831 6.37544401 -13.75 1.75 C-9.60991954 -4.4601207 -5.81108348 -3.43878867 0 0 Z " fill="#202221" transform="translate(243.75,253.25)"/>
<path d="M0 0 C0.33 0.66 0.66 1.32 1 2 C-0.22241517 4.38033105 -1.50251195 6.64516171 -2.875 8.9375 C-8.16906763 18.02450582 -12.60965284 27.45125441 -17 37 C-19.41796875 36.62890625 -19.41796875 36.62890625 -22 36 C-23.3125 33.9375 -23.3125 33.9375 -24 32 C-24.99 32.495 -24.99 32.495 -26 33 C-21.60069618 20.22329849 -9.15914999 9.54188104 0 0 Z " fill="#212322" transform="translate(314,302)"/>
<path d="M0 0 C-0.65266469 2.00461299 -1.32204472 4.00379834 -2 6 C-2.433125 7.36125 -2.433125 7.36125 -2.875 8.75 C-4 11 -4 11 -5.8125 11.875 C-8.83011555 13.42691657 -10.04803683 15.72464346 -11.8515625 18.5390625 C-12.42003906 19.26222656 -12.42003906 19.26222656 -13 20 C-13.66 20 -14.32 20 -15 20 C-15.226875 20.598125 -15.45375 21.19625 -15.6875 21.8125 C-17.33811133 24.56351888 -19.1972081 25.52484637 -22 27 C-20.49499231 22.2547993 -17.85377759 19.16211353 -14.625 15.5 C-13.65826463 14.38592796 -12.69210965 13.27135201 -11.7265625 12.15625 C-11.26540039 11.62644531 -10.80423828 11.09664062 -10.32910156 10.55078125 C-8.49594299 8.41187176 -6.74240041 6.21309625 -5 4 C-5.53625 4.515625 -6.0725 5.03125 -6.625 5.5625 C-9.84752648 7.51297655 -11.3202902 6.66089805 -15 6 C-26.72338187 5.40292276 -35.78469985 5.75731657 -46 12 C-48.8125 12.6875 -48.8125 12.6875 -51 13 C-50.67 12.01 -50.34 11.02 -50 10 C-49.01 10.33 -48.02 10.66 -47 11 C-47 10.01 -47 9.02 -47 8 C-41.71340874 4.0178923 -35.34912645 3.26519652 -29 2 C-28.23816406 1.82984375 -27.47632813 1.6596875 -26.69140625 1.484375 C-22.70335457 0.74614411 -20.15634883 1.201331 -16.5 2.6875 C-13.80480044 3.73020242 -12.58070279 4.18089149 -9.79296875 3.3125 C-7.69507359 2.22943877 -7.69507359 2.22943877 -5.82421875 0.98046875 C-4 0 -4 0 0 0 Z " fill="#C42B29" transform="translate(370,226)"/>
<path d="M0 0 C0.66 0 1.32 0 2 0 C1.79105103 0.91809448 1.79105103 0.91809448 1.57788086 1.85473633 C0.41832235 7.4674109 -0.14171245 12.84044593 -0.24609375 18.57421875 C-0.2801014 19.91472626 -0.31461285 21.25522107 -0.34960938 22.59570312 C-0.40152295 24.65084116 -0.43742614 26.70027229 -0.42553711 28.75610352 C-0.39440207 40.1691264 -0.39440207 40.1691264 -4.21508789 44.52587891 C-7.04707565 46.61678808 -9.90585385 48.32523321 -13 50 C-14.65234071 51.0543868 -16.29985974 52.11638544 -17.94140625 53.1875 C-19.47882169 54.12982853 -21.01915015 55.06742264 -22.5625 56 C-23.75069336 56.73283203 -23.75069336 56.73283203 -24.96289062 57.48046875 C-30.74497768 61 -30.74497768 61 -33 61 C-33 60.34 -33 59.68 -33 59 C-32.34 59 -31.68 59 -31 59 C-31 58.01 -31 57.02 -31 56 C-30.0925 55.5875 -29.185 55.175 -28.25 54.75 C-24.98084589 53.21004992 -24.98084589 53.21004992 -22.9375 50.8125 C-21 49 -21 49 -18.25 48.75 C-17.5075 48.8325 -16.765 48.915 -16 49 C-16 48.34 -16 47.68 -16 47 C-15.34 47 -14.68 47 -14 47 C-13.67 46.01 -13.34 45.02 -13 44 C-12.21625 43.62875 -11.4325 43.2575 -10.625 42.875 C-6.69440038 40.06742884 -5.91321992 36.6313296 -5 32 C-4.78810294 28.94591846 -4.85392662 26.06754108 -5 23 C-4.34 23 -3.68 23 -3 23 C-3.02320313 22.16597656 -3.04640625 21.33195312 -3.0703125 20.47265625 C-3.18019242 13.62085867 -2.87076463 7.6026987 -1 1 C-0.67 0.67 -0.34 0.34 0 0 Z " fill="#C82B24" transform="translate(418,218)"/>
<path d="M0 0 C1 2 1 2 0.25390625 5.26953125 C-2.27689291 10.7612093 -7.81238932 12.38876424 -13.0625 14.6875 C-14.70520874 15.43809692 -14.70520874 15.43809692 -16.38110352 16.20385742 C-18.70740394 17.26553027 -21.03787272 18.31810907 -23.37207031 19.36230469 C-27.05778661 21.02608564 -30.71469704 22.74160595 -34.3671875 24.4765625 C-36.72375194 25.58897901 -39.08051683 26.70097098 -41.4375 27.8125 C-42.5622876 28.34641357 -43.6870752 28.88032715 -44.84594727 29.43041992 C-45.88549561 29.91357666 -46.92504395 30.3967334 -47.99609375 30.89453125 C-49.37559204 31.54192261 -49.37559204 31.54192261 -50.78295898 32.20239258 C-51.51458252 32.46560303 -52.24620605 32.72881348 -53 33 C-53.66 32.67 -54.32 32.34 -55 32 C-54.16698364 31.5349707 -54.16698364 31.5349707 -53.31713867 31.06054688 C-35.35698036 21.01587097 -17.6412526 10.59276121 0 0 Z " fill="#292B2A" transform="translate(501,255)"/>
<path d="M0 0 C0.66 0.33 1.32 0.66 2 1 C0 4 0 4 -3 5 C-0.525 5.495 -0.525 5.495 2 6 C2.33 6.99 2.66 7.98 3 9 C-5.91 13.29 -14.82 17.58 -24 22 C-25 19 -25 19 -24.25390625 16.24609375 C-20.82244111 11.3040703 -16.10749889 8.98724223 -10.9375 6.0625 C-9.40899414 5.16047852 -9.40899414 5.16047852 -7.84960938 4.24023438 C-2.30175263 1.03063932 -2.30175263 1.03063932 0 0 Z " fill="#1E201F" transform="translate(525,241)"/>
<path d="M0 0 C0.66 0.33 1.32 0.66 2 1 C1.18208984 1.76570312 1.18208984 1.76570312 0.34765625 2.546875 C-13.31373028 15.71785278 -24.5902245 32.67135763 -30 51 C-31.49828872 47.11764181 -30.43110582 44.56550712 -29.0625 40.75 C-28.68222656 39.67234375 -28.30195313 38.5946875 -27.91015625 37.484375 C-27.60980469 36.66453125 -27.30945313 35.8446875 -27 35 C-26.34 35 -25.68 35 -25 35 C-24.67 32.36 -24.34 29.72 -24 27 C-23.01 27 -22.02 27 -21 27 C-20.67 25.35 -20.34 23.7 -20 22 C-19.01 21.67 -18.02 21.34 -17 21 C-16.731875 20.29875 -16.46375 19.5975 -16.1875 18.875 C-14.7635901 15.4276392 -12.73978725 13.37781704 -10.14453125 10.74609375 C-9.76683594 10.16988281 -9.38914062 9.59367188 -9 9 C-9.495 7.02 -9.495 7.02 -10 5 C-17.26 5 -24.52 5 -32 5 C-32.66 6.32 -33.32 7.64 -34 9 C-35.6875 9.625 -35.6875 9.625 -38 10 C-40.3347961 10.66152556 -42.66836622 11.32741333 -45 12 C-40.06289077 6.44575212 -34.43170444 3.06615169 -27 2 C-24.17672182 1.90616671 -21.38455059 1.86028905 -18.5625 1.875 C-17.45551758 1.86919922 -17.45551758 1.86919922 -16.32617188 1.86328125 C-12.97104009 1.86924593 -9.93123144 2.01213563 -6.61328125 2.59765625 C-3.9196966 3.2985917 -3.9196966 3.2985917 -1.625 1.5625 C-1.08875 1.046875 -0.5525 0.53125 0 0 Z " fill="#3B0E0C" transform="translate(365,229)"/>
<path d="M0 0 C0.33 0.66 0.66 1.32 1 2 C0.33251953 3.83227539 0.33251953 3.83227539 -0.7421875 6.03515625 C-2.93087347 10.74092519 -4.59456851 15.48352254 -6.125 20.4375 C-6.38361816 21.26934814 -6.64223633 22.10119629 -6.90869141 22.95825195 C-9.49080703 31.3992755 -11.32832437 39.13524191 -11 48 C-10.67 47.01 -10.34 46.02 -10 45 C-9.34 45 -8.68 45 -8 45 C-7.34 42.69 -6.68 40.38 -6 38 C-5.01 38.33 -4.02 38.66 -3 39 C-3.55429687 40.08539063 -4.10859375 41.17078125 -4.6796875 42.2890625 C-5.41167367 43.73426596 -6.14343248 45.17958458 -6.875 46.625 C-7.42220703 47.69427734 -7.42220703 47.69427734 -7.98046875 48.78515625 C-10.00000927 52.78751837 -11.7081111 56.68917073 -13 61 C-13.33 61 -13.66 61 -14 61 C-14.38297872 41.46808511 -14.38297872 41.46808511 -12 33 C-12.66 32.67 -13.32 32.34 -14 32 C-13.34 31.67 -12.68 31.34 -12 31 C-11.19735359 28.44175244 -10.48661156 25.90465605 -9.8125 23.3125 C-7.51347482 14.92671873 -4.18651186 7.61293656 0 0 Z " fill="#A63F3B" transform="translate(343,260)"/>
<path d="M0 0 C0.33 0 0.66 0 1 0 C1.64452703 25.88850228 1.64452703 25.88850228 -5.46484375 34.70703125 C-7 36 -7 36 -10 36 C-10.309375 36.86625 -10.309375 36.86625 -10.625 37.75 C-12 40 -12 40 -14.8125 41.75 C-21.98064228 46.80986514 -24.34760596 54.93909297 -27 63 C-28.80425249 58.18104714 -26.68588873 54.65457623 -24.72265625 50.17578125 C-21.3353721 43.93119619 -16.49857638 38.72167671 -10.75 34.5625 C-1.56032813 25.99939666 -0.85098845 11.7794717 0 0 Z " fill="#470E0D" transform="translate(446,165)"/>
<path d="M0 0 C-3.85882693 1.79782337 -7.7183058 3.59423769 -11.57836914 5.3894043 C-12.8887663 5.99905259 -14.19899112 6.60907149 -15.5090332 7.21948242 C-17.40269425 8.10174812 -19.2969913 8.98263573 -21.19140625 9.86328125 C-22.32779541 10.39219971 -23.46418457 10.92111816 -24.63500977 11.46606445 C-28.06968022 13.03176383 -31.52512147 14.52621883 -35 16 C-35.33 15.01 -35.66 14.02 -36 13 C-33.22569667 8.38876014 -30.42281191 7.04380086 -25.37109375 5.5078125 C-24.42472801 5.21522049 -24.42472801 5.21522049 -23.45924377 4.91671753 C-22.13293703 4.51052795 -20.80406593 4.11262787 -19.47290039 3.72265625 C-17.43432071 3.12406646 -15.40578669 2.49793329 -13.37695312 1.8671875 C-3.44079059 -1.1469302 -3.44079059 -1.1469302 0 0 Z " fill="#1F2120" transform="translate(306,302)"/>
<path d="M0 0 C5.92767926 2.21909405 11.34095878 5.38217256 16.85791016 8.44970703 C18.75476958 9.50264758 20.65649283 10.54640833 22.55859375 11.58984375 C23.76332742 12.2572594 24.96776524 12.92520939 26.171875 13.59375 C27.8130127 14.50157227 27.8130127 14.50157227 29.48730469 15.42773438 C32 17 32 17 33 19 C29.07096678 18.38044917 25.92545993 17.16434886 22.359375 15.41796875 C21.28816406 14.89783203 20.21695312 14.37769531 19.11328125 13.84179688 C18.00339844 13.29587891 16.89351563 12.74996094 15.75 12.1875 C13.55788932 11.11726457 11.36519064 10.04823259 9.171875 8.98046875 C8.12708984 8.47177246 7.08230469 7.96307617 6.00585938 7.43896484 C2.040446 5.54064236 -1.96496295 3.74475832 -6 2 C-3 1 -3 1 0 2 C0 1.34 0 0.68 0 0 Z " fill="#242625" transform="translate(269,269)"/>
<path d="M0 0 C-0.309375 0.598125 -0.61875 1.19625 -0.9375 1.8125 C-2.10209704 4.08956772 -2.10209704 4.08956772 -3 7 C-5.28515625 8.38671875 -5.28515625 8.38671875 -8.0625 9.6875 C-9.44115234 10.34298828 -9.44115234 10.34298828 -10.84765625 11.01171875 C-11.91306641 11.50091797 -11.91306641 11.50091797 -13 12 C-14.125 8.25 -14.125 8.25 -13 6 C-13.78375 6.20625 -14.5675 6.4125 -15.375 6.625 C-16.24125 6.74875 -17.1075 6.8725 -18 7 C-18.66 6.34 -19.32 5.68 -20 5 C-17.04575985 3.96703956 -14.08605927 2.95073045 -11.125 1.9375 C-10.28324219 1.64294922 -9.44148438 1.34839844 -8.57421875 1.04492188 C-7.76855469 0.77099609 -6.96289062 0.49707031 -6.1328125 0.21484375 C-5.38918457 -0.04176025 -4.64555664 -0.29836426 -3.87939453 -0.56274414 C-2 -1 -2 -1 0 0 Z " fill="#222423" transform="translate(273,312)"/>
<path d="M0 0 C4.46788317 1.34841519 8.32932094 3.11498054 12.375 5.4375 C13.43460937 6.03433594 14.49421875 6.63117188 15.5859375 7.24609375 C16.38257813 7.82488281 17.17921875 8.40367187 18 9 C18 9.99 18 10.98 18 12 C10.7452991 10.98525061 5.188579 8.91644371 -1 5 C-0.67 3.35 -0.34 1.7 0 0 Z " fill="#1C1E1D" transform="translate(251,259)"/>
<path d="M0 0 C1.299375 0.00451172 2.59875 0.00902344 3.9375 0.01367188 C7.12504825 0.0253908 10.31249955 0.04179781 13.5 0.0625 C13.5 0.3925 13.5 0.7225 13.5 1.0625 C12.63310547 1.10213867 11.76621094 1.14177734 10.87304688 1.18261719 C7.62179941 1.33987956 4.37190691 1.51328416 1.12207031 1.69726562 C-0.27798915 1.77329278 -1.67840264 1.84309026 -3.07910156 1.90625 C-14.38335554 2.39221448 -14.38335554 2.39221448 -24.5 7.0625 C-26.01006428 9.39818681 -26.66264499 11.35341025 -27.5 14.0625 C-27.83 15.0525 -28.16 16.0425 -28.5 17.0625 C-30.15 17.3925 -31.8 17.7225 -33.5 18.0625 C-32.5409375 17.815 -32.5409375 17.815 -31.5625 17.5625 C-30.881875 17.0675 -30.20125 16.5725 -29.5 16.0625 C-29.20947566 14.06111013 -28.92742442 12.05555794 -28.7734375 10.0390625 C-28.40532685 7.37814835 -27.42161451 5.90724993 -25.5 4.0625 C-24.84 4.0625 -24.18 4.0625 -23.5 4.0625 C-23.17 3.0725 -22.84 2.0825 -22.5 1.0625 C-15.00009325 -0.14013656 -7.5817215 -0.05008251 0 0 Z " fill="#410D0D" transform="translate(378.5,185.9375)"/>
<path d="M0 0 C0.33 0.66 0.66 1.32 1 2 C-0.18500595 4.13959408 -1.40820231 6.14952987 -2.75 8.1875 C-5.67749126 12.71036869 -7.99224062 16.99966256 -10 22 C-10.66 21.01 -11.32 20.02 -12 19 C-13.98 19.99 -13.98 19.99 -16 21 C-12.94600314 12.50839899 -6.45715947 6.10388023 0 0 Z " fill="#FCD1CE" transform="translate(352,285)"/>
<path d="M0 0 C4.24908336 1.59846469 6.82225739 4.8130392 9.75 8.125 C10.25660156 8.68832031 10.76320313 9.25164062 11.28515625 9.83203125 C12.52884532 11.21651531 13.76516305 12.60761488 15 14 C14.01 14.495 14.01 14.495 13 15 C12.67 15.99 12.34 16.98 12 18 C12 17.34 12 16.68 12 16 C10.68 16.33 9.36 16.66 8 17 C6.66161267 14.54429825 5.32913768 12.08570084 4 9.625 C3.6184375 8.92632812 3.236875 8.22765625 2.84375 7.5078125 C0 2.2265625 0 2.2265625 0 0 Z " fill="#272827" transform="translate(434,301)"/>
<path d="M0 0 C2.0625 0.4375 2.0625 0.4375 4 1 C-8.68071845 7.55528665 -21.76916918 10.51264278 -36 11 C-29.42082551 7.53574441 -23.30942518 6.7389491 -16 7 C-15.67 6.01 -15.34 5.02 -15 4 C-11.875 3.0859375 -11.875 3.0859375 -8 2.375 C-3.67344051 1.91374861 -3.67344051 1.91374861 0 0 Z " fill="#3A1112" transform="translate(428,175)"/>
<path d="M0 0 C0.33 0 0.66 0 1 0 C1 2.64 1 5.28 1 8 C3.475 8.99 3.475 8.99 6 10 C6 10.66 6 11.32 6 12 C5.01 12 4.02 12 3 12 C2.855625 12.78375 2.71125 13.5675 2.5625 14.375 C2 17 2 17 1 19 C0.34 19 -0.32 19 -1 19 C-1.33 20.65 -1.66 22.3 -2 24 C-2.33 24 -2.66 24 -3 24 C-3.51917486 15.65474478 -1.95829294 8.08961486 0 0 Z " fill="#D72521" transform="translate(334,286)"/>
<path d="M0 0 C-0.99 0.66 -1.98 1.32 -3 2 C-0.525 2.495 -0.525 2.495 2 3 C2 3.33 2 3.66 2 4 C-9.01889539 4.7068249 -19.95687814 5.14659011 -31 5 C-31 4.67 -31 4.34 -31 4 C-26.58591907 3.13208781 -22.16841366 2.28305429 -17.75 1.4375 C-16.49574219 1.19064453 -15.24148438 0.94378906 -13.94921875 0.68945312 C-12.74394531 0.46064453 -11.53867187 0.23183594 -10.296875 -0.00390625 C-9.18666992 -0.21861572 -8.07646484 -0.4333252 -6.93261719 -0.65454102 C-4.20848068 -0.97544121 -2.55742061 -0.89509721 0 0 Z " fill="#383A39" transform="translate(478,290)"/>
<path d="M0 0 C1.60031344 3.20062687 0.03173691 5.72271806 -1 9 C-0.34 9 0.32 9 1 9 C1.66 7.68 2.32 6.36 3 5 C3.99 5.33 4.98 5.66 6 6 C4.75160427 7.41808059 3.50120779 8.83439995 2.25 10.25 C1.55390625 11.03890625 0.8578125 11.8278125 0.140625 12.640625 C-1.84586916 14.83011856 -3.89101308 16.92901285 -6 19 C-7.33067733 15.96391436 -6.92852495 14.79291171 -5.8203125 11.58203125 C-5.26690884 10.32032386 -4.70137738 9.06387934 -4.125 7.8125 C-3.84269531 7.17119141 -3.56039063 6.52988281 -3.26953125 5.86914062 C-1.17994048 1.17994048 -1.17994048 1.17994048 0 0 Z " fill="#B13832" transform="translate(347,295)"/>
<path d="M0 0 C0.33 2.31 0.66 4.62 1 7 C0.34 6.34 -0.32 5.68 -1 5 C-3.31 6.98 -5.62 8.96 -8 11 C-8.66 10.34 -9.32 9.68 -10 9 C-12.10820797 9.3185177 -12.10820797 9.3185177 -14 10 C-6.2739726 0 -6.2739726 0 0 0 Z " fill="#292C2B" transform="translate(412,484)"/>
<path d="M0 0 C0.66 0 1.32 0 2 0 C1.86650146 0.6077124 1.73300293 1.2154248 1.59545898 1.84155273 C0.45507593 7.48019981 -0.22666118 13.0427173 -0.52734375 18.78515625 C-0.56300446 19.45872162 -0.59866516 20.13228699 -0.63540649 20.82626343 C-0.77740604 23.61999597 -0.90983421 26.41394015 -1.02905273 29.20874023 C-1.12017876 31.27670936 -1.22882465 33.34317363 -1.33984375 35.41015625 C-1.39519287 36.62840088 -1.45054199 37.84664551 -1.50756836 39.10180664 C-1.75132202 40.53641235 -1.75132202 40.53641235 -2 42 C-2.99 42.66 -3.98 43.32 -5 44 C-5 43.01 -5 42.02 -5 41 C-4.34 41 -3.68 41 -3 41 C-3.01047363 40.10804932 -3.02094727 39.21609863 -3.03173828 38.29711914 C-3.0660796 34.94797109 -3.09102394 31.59901359 -3.10986328 28.24975586 C-3.11984313 26.80766829 -3.13343184 25.36560054 -3.15087891 23.92358398 C-3.24361445 16.05469998 -3.25859059 8.62065195 -1 1 C-0.67 0.67 -0.34 0.34 0 0 Z " fill="#B23837" transform="translate(418,218)"/>
<path d="M0 0 C0.66 0.33 1.32 0.66 2 1 C1.66226562 1.50789062 1.32453125 2.01578125 0.9765625 2.5390625 C0.53054688 3.22742188 0.08453125 3.91578125 -0.375 4.625 C-0.81585938 5.29789063 -1.25671875 5.97078125 -1.7109375 6.6640625 C-4.51294843 11.74164594 -5.24264164 16.11055963 -5.125 21.875 C-5.10695313 23.02742188 -5.08890625 24.17984375 -5.0703125 25.3671875 C-5.04710937 26.23601562 -5.02390625 27.10484375 -5 28 C-8.57572978 23.97140735 -8.38473396 20.94782096 -8.21875 15.75390625 C-7.68488591 9.03293865 -6.09554645 5.44227126 -1 1 C-0.67 0.67 -0.34 0.34 0 0 Z " fill="#320F0F" transform="translate(323,214)"/>
<path d="M0 0 C7.78593716 1.61088355 15.37428218 3.76543688 23 6 C22.01 6.33 21.02 6.66 20 7 C20 7.99 20 8.98 20 10 C15.26210835 8.55676531 11.01141849 6.62773267 6.625 4.375 C5.66400391 3.88773437 5.66400391 3.88773437 4.68359375 3.390625 C3.12052499 2.59742593 1.55999378 1.79922969 0 1 C0 0.67 0 0.34 0 0 Z " fill="#292B2A" transform="translate(444,301)"/>
<path d="M0 0 C-0.7425 0.5775 -1.485 1.155 -2.25 1.75 C-6.93684269 5.58468947 -9.37389038 8.03759805 -11 14 C-11.33 14 -11.66 14 -12 14 C-12.49029622 6.76813075 -12.49029622 6.76813075 -10.125 3.0625 C-6.72125625 -0.24113364 -4.64344389 -0.10094443 0 0 Z M-14 14 C-13.34 14.33 -12.68 14.66 -12 15 C-14.3125 16.5625 -14.3125 16.5625 -17 18 C-17.99 17.67 -18.98 17.34 -20 17 C-18.03533587 15.93224776 -16.03144641 14.93446535 -14 14 Z " fill="#C52F2E" transform="translate(363,190)"/>
<path d="M0 0 C6.82224716 0.15837359 13.39417691 1.37561727 20 3 C20 3.33 20 3.66 20 4 C8.95471804 4.13379211 -1.98080785 3.76370639 -13 3 C-13 2.67 -13 2.34 -13 2 C-12.14535156 1.93941406 -11.29070312 1.87882812 -10.41015625 1.81640625 C-8.75306641 1.69072266 -8.75306641 1.69072266 -7.0625 1.5625 C-5.96035156 1.48128906 -4.85820312 1.40007812 -3.72265625 1.31640625 C-1.08890097 1.29581916 -1.08890097 1.29581916 0 0 Z " fill="#393B39" transform="translate(279,291)"/>
<path d="M0 0 C1.65 0 3.3 0 5 0 C4.62488281 0.43570312 4.24976563 0.87140625 3.86328125 1.3203125 C0.54140223 5.18607599 -2.74642927 9.07657648 -6 13 C-7.20628008 10.66785852 -8.1654738 8.50357861 -9 6 C-6.625 4.9375 -6.625 4.9375 -4 4 C-3.34 4.33 -2.68 4.66 -2 5 C-2 4.01 -2 3.02 -2 2 C-1.34 2 -0.68 2 0 2 C0 1.34 0 0.68 0 0 Z " fill="#CB2A22" transform="translate(347,285)"/>
<path d="M0 0 C-3.84478614 3.33214799 -7.98610119 5.83678929 -12.3515625 8.40625 C-16.32769484 10.79896681 -20.16550925 13.3881005 -24 16 C-22.79618552 13.50638429 -21.54571278 11.31856917 -20 9 C-19.01 9 -18.02 9 -17 9 C-17 8.34 -17 7.68 -17 7 C-15.948125 6.5875 -14.89625 6.175 -13.8125 5.75 C-11.17526447 4.64098144 -9.6303973 3.69199775 -7.375 1.8125 C-4.63946602 -0.27514436 -3.35544232 -0.38347912 0 0 Z " fill="#B33630" transform="translate(378,283)"/>
<path d="M0 0 C-3.76583318 3.43836943 -8.23282566 4.54263179 -13 6 C-13.99 6.33 -14.98 6.66 -16 7 C-16 7.66 -16 8.32 -16 9 C-16.99 9.495 -16.99 9.495 -18 10 C-18.65213292 12.02463255 -18.65213292 12.02463255 -19 14 C-19.66 14 -20.32 14 -21 14 C-21.66 16.64 -22.32 19.28 -23 22 C-24.30335839 16.78656644 -22.89663321 14.90891465 -20.44921875 10.3359375 C-16.86366781 4.55653194 -10.24052297 1.35103218 -3.87890625 -0.67578125 C-2 -1 -2 -1 0 0 Z " fill="#D22C29" transform="translate(343,209)"/>
<path d="M0 0 C0.33 0.66 0.66 1.32 1 2 C0.1271421 3.99011601 -0.75719847 5.97564065 -1.68359375 7.94140625 C-3.70313972 12.63370446 -5.28993421 17.47409194 -6.89282227 22.32250977 C-8.78585192 27.89292596 -8.78585192 27.89292596 -11 29 C-9.32280361 20.56609813 -6.38574748 6.38574748 0 0 Z " fill="#B33634" transform="translate(343,260)"/>
<path d="M0 0 C0.66 0 1.32 0 2 0 C2 5.94 2 11.88 2 18 C1.34 18 0.68 18 0 18 C-0.33 18.99 -0.66 19.98 -1 21 C-1.99 20.34 -2.98 19.68 -4 19 C-3.01 17.515 -3.01 17.515 -2 16 C-0.03159693 10.5322137 0.23356057 5.72223401 0 0 Z " fill="#D32926" transform="translate(413,241)"/>
<path d="M0 0 C0 1.65 0 3.3 0 5 C-0.33 4.34 -0.66 3.68 -1 3 C-1.66 3 -2.32 3 -3 3 C-3.33 3.99 -3.66 4.98 -4 6 C-5.92578125 7.640625 -5.92578125 7.640625 -8.3125 9.25 C-9.48232422 10.06210937 -9.48232422 10.06210937 -10.67578125 10.890625 C-13.41172492 12.1965208 -14.20359694 11.85839304 -17 11 C-14.35675132 9.16291774 -11.70998489 7.33097086 -9.0625 5.5 C-8.30775391 4.97535156 -7.55300781 4.45070313 -6.77539062 3.91015625 C-5.69741211 3.16572266 -5.69741211 3.16572266 -4.59765625 2.40625 C-3.93258057 1.94541016 -3.26750488 1.48457031 -2.58227539 1.00976562 C-1 0 -1 0 0 0 Z " fill="#F1D7D4" transform="translate(416,260)"/>
<path d="M0 0 C0.66 0.33 1.32 0.66 2 1 C1.0479279 2.00596297 0.08812654 3.00461563 -0.875 4 C-1.40867187 4.556875 -1.94234375 5.11375 -2.4921875 5.6875 C-4 7 -4 7 -6 7 C-6 6.34 -6 5.68 -6 5 C-10.42682491 3.9609622 -14.78934632 3.68407049 -19.3125 3.4375 C-20.05306641 3.39431641 -20.79363281 3.35113281 -21.55664062 3.30664062 C-23.37091464 3.20129568 -25.1854355 3.10021684 -27 3 C-27 2.67 -27 2.34 -27 2 C-24.2915983 1.97285566 -21.58347279 1.95309154 -18.875 1.9375 C-18.11445313 1.92912109 -17.35390625 1.92074219 -16.5703125 1.91210938 C-13.12414962 1.89725522 -10.00282678 1.99950726 -6.59375 2.59375 C-3.91721501 3.29816778 -3.91721501 3.29816778 -1.625 1.5625 C-1.08875 1.046875 -0.5525 0.53125 0 0 Z " fill="#4A0A07" transform="translate(365,229)"/>
<path d="M0 0 C1 2 1 2 0.0625 5.125 C-0.288125 6.07375 -0.63875 7.0225 -1 8 C0.32 8.33 1.64 8.66 3 9 C3 9.66 3 10.32 3 11 C2.195625 11.28875 1.39125 11.5775 0.5625 11.875 C-2.1326468 12.73262568 -2.1326468 12.73262568 -3 15 C-3.66 15 -4.32 15 -5 15 C-4.74322411 13.24788218 -4.46897047 11.49832064 -4.1875 9.75 C-4.03667969 8.77546875 -3.88585937 7.8009375 -3.73046875 6.796875 C-2.96781736 3.87677662 -1.96225899 2.25794185 0 0 Z " fill="#C52B26" transform="translate(351,289)"/>
<path d="M0 0 C0.671875 1.734375 0.671875 1.734375 1 4 C-0.109375 6.140625 -0.109375 6.140625 -1.75 8.25 C-2.28109375 8.95640625 -2.8121875 9.6628125 -3.359375 10.390625 C-5 12 -5 12 -8 12 C-8.66 13.32 -9.32 14.64 -10 16 C-10.99 16 -11.98 16 -13 16 C-11.74054645 14.32471737 -10.46706318 12.65997386 -9.1875 11 C-8.47980469 10.071875 -7.77210938 9.14375 -7.04296875 8.1875 C-6.36878906 7.465625 -5.69460938 6.74375 -5 6 C-4.01 6 -3.02 6 -2 6 C-1.34 4.02 -0.68 2.04 0 0 Z " fill="#301311" transform="translate(444,189)"/>
<path d="M0 0 C0.66 0 1.32 0 2 0 C1.44894091 3.9492568 0.61064629 7.34920174 -1 11 C-1.66 10.01 -2.32 9.02 -3 8 C-4.98 8.99 -4.98 8.99 -7 10 C-5.125 5.25 -5.125 5.25 -4 3 C-3.01 2.67 -2.02 2.34 -1 2 C-0.67 1.34 -0.34 0.68 0 0 Z " fill="#FAE0DC" transform="translate(343,296)"/>
<path d="M0 0 C0 4.24485034 -2.49630503 5.94658658 -5.3125 8.8125 C-9.11968299 12.68845791 -11.55527908 16.08905035 -14 21 C-14.99 21.33 -15.98 21.66 -17 22 C-15.49077507 17.25038037 -12.84446237 14.11870105 -9.625 10.4375 C-8.90183594 9.59155273 -8.90183594 9.59155273 -8.1640625 8.72851562 C-5.55353467 5.69590517 -2.87567776 2.78709053 0 0 Z " fill="#B23433" transform="translate(365,231)"/>
<path d="M0 0 C4.2742558 1.5830577 6.26531794 4.50568404 9 8 C8.34 8 7.68 8 7 8 C7.33 9.32 7.66 10.64 8 12 C7.01 12.495 7.01 12.495 6 13 C4.99491199 11.21118264 3.99607264 9.41885304 3 7.625 C2.1646875 6.12839844 2.1646875 6.12839844 1.3125 4.6015625 C0 2 0 2 0 0 Z " fill="#333533" transform="translate(434,301)"/>
<path d="M0 0 C-2.43431639 1.17374173 -4.87204182 2.33915763 -7.3125 3.5 C-8.00279297 3.83386719 -8.69308594 4.16773438 -9.40429688 4.51171875 C-14.66015625 7 -14.66015625 7 -18 7 C-18.33 6.01 -18.66 5.02 -19 4 C-16.39898714 3.13499112 -13.79493589 2.28273072 -11.1875 1.4375 C-10.44951172 1.19064453 -9.71152344 0.94378906 -8.95117188 0.68945312 C-3.33984375 -1.11328125 -3.33984375 -1.11328125 0 0 Z " fill="#414342" transform="translate(306,302)"/>
<path d="M0 0 C0.8971875 0.5259375 0.8971875 0.5259375 1.8125 1.0625 C0.18994772 2.54435125 -1.43561888 4.02290256 -3.0625 5.5 C-4.41988281 6.73556641 -4.41988281 6.73556641 -5.8046875 7.99609375 C-8.1875 10.0625 -8.1875 10.0625 -10.1875 11.0625 C-8.73688389 7.26858095 -7.19600189 3.59746333 -5.1875 0.0625 C-2.1875 -0.9375 -2.1875 -0.9375 0 0 Z " fill="#E4E4E3" transform="translate(390.1875,498.9375)"/>
<path d="M0 0 C2.31 1.98 4.62 3.96 7 6 C5.68 7.32 4.36 8.64 3 10 C1.35 8.02 -0.3 6.04 -2 4 C-1.34 2.68 -0.68 1.36 0 0 Z " fill="#232524" transform="translate(338,482)"/>
<path d="M0 0 C0.02721176 1.89575251 0.04649136 3.79161979 0.0625 5.6875 C0.07410156 6.74324219 0.08570313 7.79898438 0.09765625 8.88671875 C0.00865425 11.72410262 -0.35060162 14.2438919 -1 17 C-1.33 17 -1.66 17 -2 17 C-2 13.04 -2 9.08 -2 5 C-3.32 5.99 -4.64 6.98 -6 8 C-6.66 7.67 -7.32 7.34 -8 7 C-6.8572081 5.83035398 -5.71068285 4.66435444 -4.5625 3.5 C-3.92441406 2.8503125 -3.28632813 2.200625 -2.62890625 1.53125 C-1 0 -1 0 0 0 Z " fill="#A43537" transform="translate(446,164)"/>
<path d="M0 0 C0.33 0.66 0.66 1.32 1 2 C-0.07543783 2.98783194 -1.16073217 3.96493943 -2.25 4.9375 C-3.15492188 5.75541016 -3.15492188 5.75541016 -4.078125 6.58984375 C-6.10950094 8.0803452 -7.55587148 8.51918783 -10 9 C-11.3479743 9.63654342 -12.68596724 10.29605388 -14 11 C-10.69647732 6.55295024 -7.01222249 2.03049717 -1.625 0.1875 C-1.08875 0.125625 -0.5525 0.06375 0 0 Z " fill="#262624" transform="translate(628,279)"/>
<path d="M0 0 C-3.72979847 2.22819129 -7.72200539 2.87182138 -11.9375 3.625 C-12.64068359 3.7590625 -13.34386719 3.893125 -14.06835938 4.03125 C-17.75411981 4.7082969 -21.25172849 5.16137372 -25 5 C-21.27020153 2.77180871 -17.27799461 2.12817862 -13.0625 1.375 C-12.35931641 1.2409375 -11.65613281 1.106875 -10.93164062 0.96875 C-7.24588019 0.2917031 -3.74827151 -0.16137372 0 0 Z " fill="#420C0A" transform="translate(417,181)"/>
<path d="M0 0 C0.33 0 0.66 0 1 0 C0.56753154 7.92858846 -1.85690028 14.13628693 -7.8125 19.5625 C-8.534375 20.036875 -9.25625 20.51125 -10 21 C-8.69787309 18.28173507 -7.24376229 15.81082433 -5.5625 13.3125 C-2.88125476 9.10024786 -1.36152807 4.78195225 0 0 Z " fill="#AE3230" transform="translate(443,181)"/>
<path d="M0 0 C1.1930449 3.5791347 0.87453326 5.35611141 0 9 C-1.4375 11.625 -1.4375 11.625 -3 14 C-3.68096422 15.32608822 -4.35330586 16.65686601 -5 18 C-6.13437515 15.1708957 -6.00369234 14.01131716 -5.0390625 11.0546875 C-4.57242187 10.00539063 -4.10578125 8.95609375 -3.625 7.875 C-3.16351563 6.82054687 -2.70203125 5.76609375 -2.2265625 4.6796875 C-1.50759675 3.10895342 -0.7725435 1.545087 0 0 Z " fill="#DE2926" transform="translate(343,262)"/>
<path d="M0 0 C5.20562199 -0.43770996 7.97905204 0.76474349 12.375 3.5 C13.43460937 4.1496875 14.49421875 4.799375 15.5859375 5.46875 C16.38257813 5.9740625 17.17921875 6.479375 18 7 C13.72199024 8.42600325 11.13234078 6.45637064 7.3125 4.5625 C6.61060547 4.22412109 5.90871094 3.88574219 5.18554688 3.53710938 C3.45276294 2.70018652 1.72580248 1.85122607 0 1 C0 0.67 0 0.34 0 0 Z " fill="#434544" transform="translate(284,280)"/>
<path d="M0 0 C-0.50450684 0.23710693 -1.00901367 0.47421387 -1.52880859 0.71850586 C-3.81099073 1.79125238 -6.09299735 2.86437174 -8.375 3.9375 C-9.56609375 4.49727539 -9.56609375 4.49727539 -10.78125 5.06835938 C-11.54179687 5.42607422 -12.30234375 5.78378906 -13.0859375 6.15234375 C-13.7876709 6.48226318 -14.4894043 6.81218262 -15.21240234 7.15209961 C-16.48163981 7.75412934 -17.74352762 8.37176381 -19 9 C-17.52092375 5.10061717 -15.71067498 3.81586222 -12 2 C-3.8064 -1.2688 -3.8064 -1.2688 0 0 Z " fill="#400E0D" transform="translate(345,205)"/>
<path d="M0 0 C0.66 0 1.32 0 2 0 C1.49445676 4.42350331 0.04984798 6.78071602 -3 10 C-5.75 11.8125 -5.75 11.8125 -8 13 C-6.5360077 9.93124691 -4.85990364 7.09565257 -3 4.25 C-2.484375 3.45078125 -1.96875 2.6515625 -1.4375 1.828125 C-0.963125 1.22484375 -0.48875 0.6215625 0 0 Z " fill="#232322" transform="translate(520,395)"/>
<path d="M0 0 C0.66 0 1.32 0 2 0 C0.9611908 6.1112924 -0.15730278 12.07704464 -2 18 C-2.33 18 -2.66 18 -3 18 C-3.21586845 12.06361776 -2.71249434 6.71248111 -1 1 C-0.67 0.67 -0.34 0.34 0 0 Z " fill="#C22D2B" transform="translate(418,218)"/>
<path d="M0 0 C0.66 0.33 1.32 0.66 2 1 C0.6875 3 0.6875 3 -1 5 C-1.99 5 -2.98 5 -4 5 C-4.226875 5.61875 -4.45375 6.2375 -4.6875 6.875 C-6.37929835 9.61410209 -7.99244161 10.05024472 -11 11 C-7.6189962 6.86378916 -4.33409466 3.18683431 0 0 Z " fill="#FDE3E2" transform="translate(360,294)"/>
<path d="M0 0 C0.33 0 0.66 0 1 0 C1 7.26 1 14.52 1 22 C0.67 22 0.34 22 0 22 C-0.06058594 20.87980469 -0.12117188 19.75960937 -0.18359375 18.60546875 C-0.26801424 17.13280016 -0.35266149 15.66014456 -0.4375 14.1875 C-0.47681641 13.44951172 -0.51613281 12.71152344 -0.55664062 11.95117188 C-0.74381035 8.76928658 -0.98720793 6.03837622 -2 3 C-1.34 2.01 -0.68 1.02 0 0 Z " fill="#D4D5D5" transform="translate(364,540)"/>
<path d="M0 0 C0.99 0.33 1.98 0.66 3 1 C2.52949219 1.50789062 2.05898438 2.01578125 1.57421875 2.5390625 C-2.01734405 6.50985864 -4.9022425 10.06409999 -7 15 C-7.74609375 13.359375 -7.74609375 13.359375 -8 11 C-6.34765625 8.203125 -6.34765625 8.203125 -4.0625 5.25 C-3.31097656 4.26515625 -2.55945313 3.2803125 -1.78515625 2.265625 C-0.90150391 1.14414063 -0.90150391 1.14414063 0 0 Z " fill="#A92F2E" transform="translate(428,203)"/>
<path d="M0 0 C1.32 1.32 2.64 2.64 4 4 C2.35 5.65 0.7 7.3 -1 9 C-2.0326802 6.21176345 -2.04509293 5.1322726 -1.0625 2.25 C-0.711875 1.5075 -0.36125 0.765 0 0 Z " fill="#AB4642" transform="translate(342,305)"/>
<path d="M0 0 C-1 3 -1 3 -3.1875 4.1875 C-6.25390311 5.07334979 -8.82438155 5.14770318 -12 5 C-7.86687528 1.75254486 -5.36067372 0 0 0 Z " fill="#CA2323" transform="translate(370,226)"/>
<path d="M0 0 C0.66 0.66 1.32 1.32 2 2 C1.875 5.4375 1.875 5.4375 1 9 C-0.32 9.99 -1.64 10.98 -3 12 C-2.01 8.04 -1.02 4.08 0 0 Z " fill="#282827" transform="translate(401,393)"/>
<path d="M0 0 C0.66 0.33 1.32 0.66 2 1 C-1.46741134 3.95749791 -4.86873527 6.07848152 -9 8 C-8.74609375 6.14453125 -8.74609375 6.14453125 -8 4 C-6.22265625 2.69921875 -6.22265625 2.69921875 -4.0625 1.6875 C-3.35222656 1.34074219 -2.64195312 0.99398437 -1.91015625 0.63671875 C-1.27980469 0.42660156 -0.64945313 0.21648437 0 0 Z " fill="#242624" transform="translate(599,199)"/>
<path d="M0 0 C1.65 0 3.3 0 5 0 C4.07347299 1.17539996 3.13336613 2.34010577 2.1875 3.5 C1.66542969 4.1496875 1.14335937 4.799375 0.60546875 5.46875 C-1 7 -1 7 -4 7 C-3.34 6.67 -2.68 6.34 -2 6 C-2 4.68 -2 3.36 -2 2 C-1.34 2 -0.68 2 0 2 C0 1.34 0 0.68 0 0 Z " fill="#C23733" transform="translate(347,285)"/>
<path d="M0 0 C0.66 0.33 1.32 0.66 2 1 C1.67 1.33 1.34 1.66 1 2 C1.66 2.33 2.32 2.66 3 3 C3 3.99 3 4.98 3 6 C3.66 6.33 4.32 6.66 5 7 C3.35 7.66 1.7 8.32 0 9 C-0.87890625 2.84765625 -0.87890625 2.84765625 -1 1 C-0.67 0.67 -0.34 0.34 0 0 Z " fill="#292B29" transform="translate(511,249)"/>
<path d="M0 0 C-1.36018991 3.11963955 -2.83260134 5.00834822 -5.4375 7.1875 C-6.33275391 7.95126953 -6.33275391 7.95126953 -7.24609375 8.73046875 C-9 10 -9 10 -12 11 C-12 10.34 -12 9.68 -12 9 C-11.195625 8.731875 -10.39125 8.46375 -9.5625 8.1875 C-8.716875 7.795625 -7.87125 7.40375 -7 7 C-6.67 6.01 -6.34 5.02 -6 4 C-2.45714286 0 -2.45714286 0 0 0 Z " fill="#461111" transform="translate(444,164)"/>
<path d="M0 0 C-4.01254885 3.51098025 -8.20983041 5.76537994 -13 8 C-13 7.34 -13 6.68 -13 6 C-11.42578125 4.4921875 -11.42578125 4.4921875 -9.3125 2.875 C-8.62800781 2.33617187 -7.94351562 1.79734375 -7.23828125 1.2421875 C-4.62067341 -0.21051633 -2.94824985 -0.23751225 0 0 Z " fill="#B14039" transform="translate(378,283)"/>
<path d="M0 0 C2.56695636 0.39491636 4.67123994 0.83561997 7 2 C7 2.99 7 3.98 7 5 C4.69 4.67 2.38 4.34 0 4 C-0.33 3.01 -0.66 2.02 -1 1 C-0.67 0.67 -0.34 0.34 0 0 Z " fill="#171918" transform="translate(262,266)"/>
<path d="M0 0 C-0.33 0.99 -0.66 1.98 -1 3 C-1.763125 3.28875 -2.52625 3.5775 -3.3125 3.875 C-6.63260549 5.2648116 -7.94307675 7.10507099 -10 10 C-9.84876423 7.35337395 -9.49998757 5.55721506 -7.703125 3.5546875 C-3.6 0 -3.6 0 0 0 Z " fill="#CB2723" transform="translate(433,200)"/>
<path d="M0 0 C1.3609623 2.7219246 0.70366248 4.1831957 0.0625 7.125 C-0.13214844 8.03507812 -0.32679688 8.94515625 -0.52734375 9.8828125 C-0.68332031 10.58148438 -0.83929688 11.28015625 -1 12 C-1.66 12 -2.32 12 -3 12 C-2.67 9.69 -2.34 7.38 -2 5 C-2.66 4.67 -3.32 4.34 -4 4 C-2.68 2.68 -1.36 1.36 0 0 Z " fill="#B94440" transform="translate(333,288)"/>
<path d="M0 0 C1.2065625 0.0309375 1.2065625 0.0309375 2.4375 0.0625 C1.4475 0.3925 0.4575 0.7225 -0.5625 1.0625 C-0.5625 1.7225 -0.5625 2.3825 -0.5625 3.0625 C-5.5125 3.0625 -10.4625 3.0625 -15.5625 3.0625 C-15.5625 2.7325 -15.5625 2.4025 -15.5625 2.0625 C-14.70785156 2.00191406 -13.85320312 1.94132812 -12.97265625 1.87890625 C-11.31556641 1.75322266 -11.31556641 1.75322266 -9.625 1.625 C-8.52285156 1.54378906 -7.42070312 1.46257812 -6.28515625 1.37890625 C-3.25411285 1.02666161 -3.00301569 0.07324429 0 0 Z " fill="#494B4A" transform="translate(281.5625,290.9375)"/>
<path d="M0 0 C0.78375 0.04125 1.5675 0.0825 2.375 0.125 C-0.39780706 3.20589673 -2.68826356 4.81275452 -6.625 6.125 C-3.85227273 0.18344156 -3.85227273 0.18344156 0 0 Z " fill="#B6372F" transform="translate(400.625,267.875)"/>
<path d="M0 0 C3 1 3 1 5 3 C5.66 3.33 6.32 3.66 7 4 C7 4.99 7 5.98 7 7 C3.54074837 5.7508258 0.85306797 4.32472205 -2 2 C-1.34 2 -0.68 2 0 2 C0 1.34 0 0.68 0 0 Z " fill="#252726" transform="translate(120,193)"/>
<path d="M0 0 C1.32 0.33 2.64 0.66 4 1 C2.35 1.66 0.7 2.32 -1 3 C-1 3.66 -1 4.32 -1 5 C-2.98 5.66 -4.96 6.32 -7 7 C-6.3125 5.0625 -6.3125 5.0625 -5 3 C-2.375 2.25 -2.375 2.25 0 2 C0 1.34 0 0.68 0 0 Z " fill="#2A1816" transform="translate(433,170)"/>
<path d="M0 0 C2 2 2 2 3 5 C2.01 5.99 1.02 6.98 0 8 C-0.33 7.34 -0.66 6.68 -1 6 C-0.67 5.34 -0.34 4.68 0 4 C-0.99 3.67 -1.98 3.34 -3 3 C-2.01 2.01 -1.02 1.02 0 0 Z " fill="#CE2C29" transform="translate(353,281)"/>
<path d="M0 0 C0.66 0.33 1.32 0.66 2 1 C2 1.66 2 2.32 2 3 C-3.75 6 -3.75 6 -6 6 C-5 3 -5 3 -2.5625 1.25 C-1.716875 0.8375 -0.87125 0.425 0 0 Z " fill="#262827" transform="translate(467,275)"/>
<path d="M0 0 C-0.3125 1.9375 -0.3125 1.9375 -1 4 C-1.99 4.33 -2.98 4.66 -4 5 C-4.66 4.67 -5.32 4.34 -6 4 C-6 3.01 -6 2.02 -6 1 C-4 0 -4 0 0 0 Z " fill="#131514" transform="translate(485,267)"/>
<path d="M0 0 C0 3 0 3 -2.5 5.6875 C-3.325 6.450625 -4.15 7.21375 -5 8 C-5.99 7.67 -6.98 7.34 -8 7 C-5.36 4.69 -2.72 2.38 0 0 Z " fill="#393938" transform="translate(581,317)"/>
<path d="M0 0 C0 0.66 0 1.32 0 2 C-1.98 2.99 -3.96 3.98 -6 5 C-6.33 3.68 -6.66 2.36 -7 1 C-4.53721199 -0.231394 -2.7204945 -0.07159196 0 0 Z " fill="#141615" transform="translate(255,318)"/>
<path d="M0 0 C0.33 0.66 0.66 1.32 1 2 C0.22265625 3.7265625 0.22265625 3.7265625 -0.9375 5.625 C-1.618125 6.73875 -2.29875 7.8525 -3 9 C-3.33 8.34 -3.66 7.68 -4 7 C-4.66 6.67 -5.32 6.34 -6 6 C-4.02 4.02 -2.04 2.04 0 0 Z " fill="#5E5E5C" transform="translate(314,302)"/>
<path d="M0 0 C0 0.66 0 1.32 0 2 C-0.99 2 -1.98 2 -3 2 C-3 2.66 -3 3.32 -3 4 C-4.98 4.99 -6.96 5.98 -9 7 C-9.66 6.34 -10.32 5.68 -11 5 C-9.54462432 4.16151196 -8.08559627 3.32936066 -6.625 2.5 C-5.81289063 2.0359375 -5.00078125 1.571875 -4.1640625 1.09375 C-2 0 -2 0 0 0 Z " fill="#FBE1DA" transform="translate(387,279)"/>
<path d="M0 0 C0 1.65 0 3.3 0 5 C-3 5 -3 5 -4.6875 3.5 C-5.120625 3.005 -5.55375 2.51 -6 2 C-2.25 0 -2.25 0 0 0 Z " fill="#131514" transform="translate(685,152)"/>
<path d="M0 0 C2.62187494 1.04874998 3.79371361 1.64931313 5.25 4.125 C5.4975 4.74375 5.745 5.3625 6 6 C3.03 5.505 3.03 5.505 0 5 C0 3.35 0 1.7 0 0 Z " fill="#191A19" transform="translate(313,460)"/>
<path d="M0 0 C2.125 0.9375 2.125 0.9375 4 2 C3.01 2.495 3.01 2.495 2 3 C2 3.99 2 4.98 2 6 C0.68 5.34 -0.64 4.68 -2 4 C-2 3.01 -2 2.02 -2 1 C-1.34 0.67 -0.68 0.34 0 0 Z " fill="#232524" transform="translate(260,264)"/>
<path d="M0 0 C2.98704569 0.49784095 4.39324263 1.26216175 7 3 C7 3.66 7 4.32 7 5 C1.25 3.25 1.25 3.25 -1 1 C-0.67 0.67 -0.34 0.34 0 0 Z " fill="#2D2F2E" transform="translate(243,259)"/>
<path d="M0 0 C0.66 0.33 1.32 0.66 2 1 C1.0479279 2.00596297 0.08812654 3.00461563 -0.875 4 C-1.40867187 4.556875 -1.94234375 5.11375 -2.4921875 5.6875 C-4 7 -4 7 -6 7 C-6 6.01 -6 5.02 -6 4 C-3 1.8125 -3 1.8125 0 0 Z " fill="#600605" transform="translate(365,229)"/>
<path d="M0 0 C4.455 0.99 4.455 0.99 9 2 C8.01 3.485 8.01 3.485 7 5 C3.535 3.02 3.535 3.02 0 1 C0 0.67 0 0.34 0 0 Z " fill="#434544" transform="translate(444,301)"/>
<path d="M0 0 C0.33 0.66 0.66 1.32 1 2 C-3.43076923 5.07692308 -3.43076923 5.07692308 -6.3125 4.6875 C-6.869375 4.460625 -7.42625 4.23375 -8 4 C-5.37801226 1.84622436 -3.35595828 0.59927826 0 0 Z " fill="#FAE4DF" transform="translate(407,267)"/>
<path d="M0 0 C1.32 0.99 2.64 1.98 4 3 C2.7934375 3.4021875 2.7934375 3.4021875 1.5625 3.8125 C0.716875 4.204375 -0.12875 4.59625 -1 5 C-1.33 5.99 -1.66 6.98 -2 8 C-2.66 7.67 -3.32 7.34 -4 7 C-2.68 4.69 -1.36 2.38 0 0 Z " fill="#252525" transform="translate(660,224)"/>
<path d="M0 0 C1.98 0.99 1.98 0.99 4 2 C4 2.99 4 3.98 4 5 C2.68 5.33 1.36 5.66 0 6 C0 4.02 0 2.04 0 0 Z " fill="#171918" transform="translate(441,309)"/>
<path d="M0 0 C-0.33 1.98 -0.66 3.96 -1 6 C-1.99 6 -2.98 6 -4 6 C-4.33 5.01 -4.66 4.02 -5 3 C-2.25 0 -2.25 0 0 0 Z " fill="#FFF0ED" transform="translate(345,296)"/>
<path d="M0 0 C2.97 0.495 2.97 0.495 6 1 C5.67 1.66 5.34 2.32 5 3 C3.02 3 1.04 3 -1 3 C-0.67 2.01 -0.34 1.02 0 0 Z " fill="#121413" transform="translate(273,290)"/>
<path d="M0 0 C0.556875 0.226875 1.11375 0.45375 1.6875 0.6875 C-5.0625 4.6875 -5.0625 4.6875 -7.3125 4.6875 C-7.3125 4.0275 -7.3125 3.3675 -7.3125 2.6875 C-3.15982824 -0.42700382 -3.15982824 -0.42700382 0 0 Z " fill="#B6413D" transform="translate(392.3125,274.3125)"/>
<path d="M0 0 C1.98 0.495 1.98 0.495 4 1 C2.63016497 4.16115776 2.0109362 4.9927092 -1 7 C-0.67 4.69 -0.34 2.38 0 0 Z " fill="#D32320" transform="translate(434,193)"/>
<path d="M0 0 C1.98 0.99 3.96 1.98 6 3 C6 3.99 6 4.98 6 6 C3.5625 5.25 3.5625 5.25 1 4 C0.1875 1.875 0.1875 1.875 0 0 Z " fill="#222423" transform="translate(79,160)"/>
<path d="M0 0 C0.66 0 1.32 0 2 0 C2.33 0.99 2.66 1.98 3 3 C1.68 4.32 0.36 5.64 -1 7 C-1.04254356 5.00045254 -1.04080783 2.99958364 -1 1 C-0.67 0.67 -0.34 0.34 0 0 Z " fill="#232323" transform="translate(740,37)"/>
</svg>
